HIERARCHY
ROOT Hips
{
	OFFSET 0.000000  0.463670  0.080341
	CHANNELS 6 Xposition Yposition Zposition Zrotation Yrotation Xrotation 
	JOINT LHipJoint
	{
		OFFSET 0 0 0
		CHANNELS 3 Zrotation Yrotation Xrotation
		JOINT LeftUpLeg
		{
			OFFSET 0.949434 -0.248378 0.086503
			CHANNELS 3 Zrotation Yrotation Xrotation
			JOINT LeftLeg
			{
				OFFSET -0.076513 -3.879421 -0.177038
				CHANNELS 3 Zrotation Yrotation Xrotation
				JOINT LeftFoot
				{
					OFFSET -0.188964 -3.680973 -0.122632
					CHANNELS 3 Zrotation Yrotation Xrotation
					JOINT LeftToeBase
					{
						OFFSET 0.055451 -0.524480 1.120382
						CHANNELS 3 Zrotation Yrotation Xrotation
						End Site
						{
							OFFSET 0.007944 -0.006006 0.139660
						}
					}
				}
			}
		}
	}
	JOINT RHipJoint
	{
		OFFSET 0 0 0
		CHANNELS 3 Zrotation Yrotation Xrotation
		JOINT RightUpLeg
		{
			OFFSET -0.949434 -0.248378 0.086503
			CHANNELS 3 Zrotation Yrotation Xrotation
			JOINT RightLeg
			{
				OFFSET 0.076513 -3.879421 -0.177038
				CHANNELS 3 Zrotation Yrotation Xrotation
				JOINT RightFoot
				{
					OFFSET 0.188964 -3.680973 -0.122632
					CHANNELS 3 Zrotation Yrotation Xrotation
					JOINT RightToeBase
					{
						OFFSET -0.055451 -0.524480 1.120382
						CHANNELS 3 Zrotation Yrotation Xrotation
						End Site
						{
							OFFSET -0.007944 -0.006006 0.139660
						}
					}
				}
			}
		}
	}
	JOINT LowerBack
	{
		OFFSET 0 0 0
		CHANNELS 3 Zrotation Yrotation Xrotation
		JOINT Spine
		{
			OFFSET 0.000000 0.677144 0.028277
			CHANNELS 3 Zrotation Yrotation Xrotation
			JOINT Spine1
			{
				OFFSET 0.000000 2.156116 -0.508617
				CHANNELS 3 Zrotation Yrotation Xrotation
				JOINT Neck
				{
					OFFSET 0 0 0
					CHANNELS 3 Zrotation Yrotation Xrotation
					JOINT Neck1
					{
						OFFSET 0.000000 1.781871 0.216275
						CHANNELS 3 Zrotation Yrotation Xrotation
						JOINT Head
						{
							OFFSET 0.000000 1.015906 -0.026879
							CHANNELS 3 Zrotation Yrotation Xrotation
							End Site
							{
								OFFSET 0.000000 0.339197 0.983632
							}
						}
					}
				}
				JOINT LeftShoulder
				{
					OFFSET 0 0 0
					CHANNELS 3 Zrotation Yrotation Xrotation
					JOINT LeftArm
					{
						OFFSET 1.565866 1.184736 0.289545
						CHANNELS 3 Zrotation Yrotation Xrotation
						JOINT LeftForeArm
						{
							OFFSET 1.930940 -0.176441 -0.109244
							CHANNELS 3 Zrotation Yrotation Xrotation
							JOINT LeftHand
							{
								OFFSET 2.263412 -0.058986 0.122483
								CHANNELS 3 Zrotation Yrotation Xrotation
								JOINT LeftFingerBase
								{
									OFFSET 0 0 0
									CHANNELS 3 Zrotation Yrotation Xrotation
									JOINT LeftHandIndex1
									{
										OFFSET 0.944218 0.017559 0.358417
										CHANNELS 3 Zrotation Yrotation Xrotation
										End Site
										{
											OFFSET 0.237801 -0.022714 0.035813
										}
									}
								}
								JOINT LThumb
								{
									OFFSET 0 0 0
									CHANNELS 3 Zrotation Yrotation Xrotation
									End Site
									{
										OFFSET 0.234930 -0.092931 0.244282
									}
								}
							}
						}
					}
				}
				JOINT RightShoulder
				{
					OFFSET 0 0 0
					CHANNELS 3 Zrotation Yrotation Xrotation
					JOINT RightArm
					{
						OFFSET -1.565866 1.184736 0.289545
						CHANNELS 3 Zrotation Yrotation Xrotation
						JOINT RightForeArm
						{
							OFFSET -1.930940 -0.176441 -0.109244
							CHANNELS 3 Zrotation Yrotation Xrotation
							JOINT RightHand
							{
								OFFSET -2.263412 -0.058986 0.122483
								CHANNELS 3 Zrotation Yrotation Xrotation
								JOINT RightFingerBase
								{
									OFFSET 0 0 0
									CHANNELS 3 Zrotation Yrotation Xrotation
									JOINT RightHandIndex1
									{
										OFFSET -0.944218 0.017559 0.358417
										CHANNELS 3 Zrotation Yrotation Xrotation
										End Site
										{
											OFFSET -0.237801 -0.022714 0.035813
										}
									}
								}
								JOINT RThumb
								{
									OFFSET 0 0 0
									CHANNELS 3 Zrotation Yrotation Xrotation
									End Site
									{
										OFFSET -0.234930 -0.092931 0.244282
									}
								}
							}
						}
					}
				}
			}
		}
	}
}
MOTION
Frames: 5
Frame Time: .0083333
5.312842 9.041684 -13.723685 -183.764008 24.745899 177.039993 0.000000 0.000000 0.000000 -4.374399 4.057900 -21.361300 3.925300 12.060400 35.945900 -1.545500 -21.508801 11.011700 10.305600 17.578100 60.504902 0.000000 0.000000 0.000000 -14.110200 -5.757500 -5.989600 -16.967501 -19.778099 81.101898 179.289200 5.168300 -15.020400 -5.402500 13.823200 -42.533699 -6.724700 1.474500 4.398900 -3.209100 1.744600 0.389000 0.341600 0.992700 -2.159700 -2.330500 4.310400 18.708799 10.198200 5.879400 -17.377501 3.648100 3.111000 -10.729100 0.000000 0.000000 0.000000 -47.993999 10.809700 6.653700 10.553700 -17.600901 -1.638400 -0.000000 0.000000 -5.415500 16.444201 -16.382099 -4.758600 -7.125000 0.000000 -0.000000 -7.552700 13.047400 5.703500 0.000000 0.000000 0.000000 70.088501 -29.928499 -4.319400 -11.557900 19.138399 -1.954900 0.000000 -0.000000 -4.483700 -16.101299 -47.269402 11.971400 7.125000 -0.000000 -0.000000 44.231098 -74.619301 -32.335899
5.323105 9.075737 -13.895316 -183.313004 25.192801 177.330002 0.000000 0.000000 0.000000 -4.198200 4.266200 -19.915199 3.802000 11.892200 35.351601 -1.579200 -21.672800 10.559500 10.330600 17.591600 60.587502 0.000000 0.000000 0.000000 -11.943900 -2.603400 -7.831700 -16.626600 -19.724899 80.093300 179.395599 4.780600 -13.842100 -5.083100 13.476700 -41.180401 -6.068800 1.517600 4.259100 -3.084900 1.809700 0.135400 0.101300 1.017000 -2.332800 -2.255000 4.314200 18.512600 10.263000 5.857300 -16.772100 3.675300 3.130800 -10.499200 0.000000 0.000000 0.000000 -48.203098 10.503700 8.814200 11.765100 -19.451401 -2.023400 -0.000000 0.000000 -6.220800 8.753300 -11.940400 -1.824600 -7.125000 0.000000 -0.000000 -12.828000 18.071800 8.430000 0.000000 0.000000 0.000000 70.551804 -29.268700 -2.601600 -11.566800 19.151800 -1.957800 0.000000 -0.000000 -2.289500 -15.532300 -48.105400 11.688700 7.125000 -0.000000 -0.000000 47.282200 -74.909798 -35.041801
5.329421 9.138790 -14.067789 -183.681000 25.253500 176.944000 0.000000 0.000000 0.000000 -5.059500 4.033400 -17.592501 3.527300 11.503300 33.996601 -1.383000 -20.309500 9.104700 10.254500 17.550501 60.335800 0.000000 0.000000 0.000000 -11.079400 -0.179200 -9.034100 -16.001900 -19.612400 78.237503 179.348999 4.002600 -14.410900 -5.479200 13.903900 -42.853901 -6.278600 1.395700 4.308500 -2.951300 1.622600 0.046600 0.364600 0.927700 -2.453600 -2.192800 4.549900 18.329201 9.795000 6.107700 -15.543800 3.533800 3.294400 -10.073000 0.000000 0.000000 0.000000 -49.117699 10.178800 11.949000 13.157600 -21.517700 -2.510800 -0.000000 0.000000 -8.737900 8.652800 -12.230500 -1.846500 -7.125000 0.000000 -0.000000 -12.882600 17.791401 8.549600 0.000000 0.000000 0.000000 70.607399 -28.372601 -1.605400 -11.497600 19.046900 -1.935200 0.000000 0.000000 1.077300 -12.578900 -46.737999 9.229700 7.125000 -0.000000 -0.000000 46.076599 -72.979599 -32.338402
5.333947 9.239158 -14.236737 -183.957001 24.895100 176.574997 0.000000 0.000000 0.000000 -5.818899 3.666000 -15.306700 3.256000 11.098400 32.612598 -0.998400 -17.421900 8.154700 10.203900 17.522900 60.167801 0.000000 0.000000 0.000000 -10.369600 1.636600 -10.008800 -15.157800 -19.428301 75.711601 179.288895 5.235000 -15.023500 -5.663500 14.094100 -43.615700 -6.498700 1.106500 4.303800 -2.667200 1.218700 0.052700 0.807700 0.724100 -2.434500 -2.540300 4.834500 18.709200 9.552100 6.462100 -14.984500 3.511700 3.468900 -9.985900 0.000000 -0.000000 0.000000 -50.528301 9.971300 15.588900 14.936300 -24.057301 -3.199900 -0.000000 0.000000 -11.866400 8.193500 -12.896500 -1.840600 -7.125000 0.000000 -0.000000 -13.164000 17.158800 8.934900 0.000000 -0.000000 0.000000 70.539902 -27.531500 2.225000 -12.234400 20.155199 -2.182400 0.000000 -0.000000 -0.098900 -12.340200 -46.719398 9.049200 7.125000 -0.000000 -0.000000 46.250801 -72.881699 -32.384800
5.338211 9.370842 -14.402474 -183.776001 24.210501 176.462006 0.000000 0.000000 0.000000 -5.917601 3.569200 -13.729000 3.111100 10.872800 31.852100 -0.548700 -13.365800 8.328700 10.234500 17.539600 60.269100 0.000000 0.000000 0.000000 -9.274400 3.116300 -10.933900 -14.139900 -19.155899 72.631203 179.355392 5.542700 -14.302100 -5.262300 13.673300 -41.944000 -6.324300 0.707800 3.977300 -2.253100 0.720000 0.232500 1.178300 0.453000 -2.037500 -2.798000 5.094600 19.505301 9.135000 6.810600 -15.160100 3.376700 3.604800 -10.198000 0.000000 -0.000000 0.000000 -52.290100 9.780500 18.926201 17.120001 -27.015699 -4.141700 -0.000000 0.000000 -13.849200 8.838300 -13.833300 -2.129100 -7.125000 0.000000 -0.000000 -12.685300 16.202700 8.864100 0.000000 -0.000000 0.000000 70.561302 -26.460300 5.810600 -13.259300 21.666000 -2.548200 0.000000 -0.000000 -1.301400 -8.659700 -45.408699 6.190100 7.125000 -0.000000 -0.000000 46.514500 -70.755302 -30.609800
